<svg width="100" height="100" viewBox="0 0 100 100" fill="none" xmlns="http://www.w3.org/2000/svg">
<circle cx="50" cy="50" r="49" stroke="#1A1A1A" stroke-width="2"/>
<path d="M50.0001 49.5239C56.3443 49.5239 61.4873 44.4072 61.4873 38.0954C61.4873 31.7835 56.3443 26.6668 50.0001 26.6668C43.6559 26.6668 38.5129 31.7835 38.5129 38.0954C38.5129 44.4072 43.6559 49.5239 50.0001 49.5239Z" fill="#1A1A1A"/>
<path d="M55.983 54.2861H44.0172C37.077 54.2861 31.3334 60.0003 31.3334 66.9051C31.3334 68.5718 32.0514 70.0004 33.4873 70.7146C35.6411 71.9051 40.4275 73.3337 50.0001 73.3337C59.5728 73.3337 64.3591 71.9051 66.5129 70.7146C67.7095 70.0004 68.6668 68.5718 68.6668 66.9051C68.6668 59.7623 62.9232 54.2861 55.983 54.2861Z" fill="#1A1A1A"/>
</svg>
